<?xml version="1.0" encoding="UTF-8" ?>
<!DOCTYPE svg PUBLIC "-//W3C//DTD SVG 1.1//EN" "http://www.w3.org/Graphics/SVG/1.1/DTD/svg11.dtd">
<svg width="512pt" height="512pt" viewBox="0 0 512 512" version="1.1" xmlns="http://www.w3.org/2000/svg">
<g id="#ffffffff">
<path fill="#ffffff" opacity="1.00" d=" M 116.83 44.82 C 117.88 41.65 120.45 38.69 123.95 38.34 C 128.10 37.69 131.93 39.73 135.72 41.08 C 258.74 86.37 381.50 132.35 504.53 177.60 C 508.53 178.67 511.58 182.05 512.00 186.21 L 512.00 187.81 C 511.53 192.05 508.14 194.94 504.42 196.48 C 487.02 205.47 469.55 214.34 452.19 223.39 C 449.98 224.14 451.77 226.45 452.01 227.97 C 457.82 243.20 456.04 260.84 447.90 274.88 C 439.66 289.23 424.74 299.50 408.38 302.04 C 402.03 303.17 395.56 302.65 389.19 302.01 C 386.87 306.87 386.49 313.42 381.37 316.35 C 377.37 318.76 372.88 316.56 368.98 315.12 C 344.38 306.09 319.85 296.88 295.18 288.05 C 291.03 297.77 289.06 308.78 281.94 316.96 C 278.77 320.72 274.71 323.57 270.48 326.01 C 270.42 360.68 270.50 395.35 270.44 430.03 C 270.20 444.24 257.43 457.26 243.02 456.69 C 231.65 457.41 220.66 449.72 216.67 439.19 C 214.10 433.04 214.73 426.25 214.72 419.75 C 173.45 419.56 132.18 419.70 90.92 419.67 C 89.09 419.42 88.63 421.68 87.78 422.83 C 81.56 435.05 69.54 443.68 56.30 446.79 C 56.27 453.16 56.39 459.52 56.28 465.89 C 56.23 470.81 52.08 475.52 47.00 475.42 C 34.34 475.46 21.66 475.47 9.00 475.41 C 4.54 475.51 1.01 471.79 0.00 467.67 L 0.00 315.39 C 1.22 311.45 4.60 307.97 8.95 308.00 C 20.30 307.80 31.66 308.01 43.01 307.90 C 45.93 307.96 49.11 307.70 51.69 309.33 C 54.97 311.26 56.47 315.26 56.33 318.93 C 56.29 324.77 56.37 330.61 56.23 336.45 C 61.52 338.42 67.04 339.98 71.77 343.18 C 79.66 348.02 85.46 355.54 89.61 363.70 C 131.29 363.52 172.98 363.71 214.66 363.61 C 214.71 348.40 214.70 333.19 214.68 317.98 C 214.98 316.05 213.06 315.18 211.92 314.04 C 204.03 307.44 199.26 297.31 199.11 287.03 C 198.70 275.97 204.69 266.21 207.73 255.90 C 181.25 246.12 154.72 236.45 128.22 226.72 C 125.13 225.52 121.91 224.64 118.99 223.07 C 115.12 220.94 113.42 215.89 115.02 211.81 C 118.11 203.04 121.47 194.36 124.59 185.60 C 110.12 180.31 95.69 174.94 81.22 169.66 C 76.19 168.17 73.16 162.12 75.43 157.29 C 89.16 119.78 103.02 82.31 116.83 44.82 M 129.16 65.20 C 118.26 95.30 106.88 125.25 96.13 155.40 C 158.44 178.08 220.60 201.21 282.89 223.95 C 291.46 215.82 300.11 207.78 308.69 199.66 C 311.20 197.13 315.14 196.05 318.51 197.41 C 345.87 207.33 373.12 217.56 400.46 227.52 C 402.98 228.49 405.20 226.42 407.38 225.48 C 421.71 218.12 436.01 210.70 450.35 203.35 C 459.91 198.23 469.80 193.67 479.14 188.17 C 390.33 155.06 301.33 122.47 212.54 89.31 C 185.61 79.21 158.54 69.48 131.67 59.22 C 130.69 61.15 129.88 63.16 129.16 65.20 M 141.91 192.26 C 140.17 198.15 137.38 203.69 135.91 209.66 C 211.81 237.76 287.90 265.31 363.82 293.35 C 366.39 294.30 368.94 295.37 371.65 295.91 C 377.85 278.48 384.43 261.19 390.67 243.77 C 366.22 234.91 341.90 225.65 317.37 217.02 C 308.82 225.27 300.05 233.27 291.46 241.47 C 288.87 244.20 284.75 244.13 281.35 243.33 C 236.07 226.64 190.75 210.03 145.48 193.30 C 144.31 192.90 143.11 192.55 141.91 192.26 M 414.45 242.68 C 412.74 243.76 410.19 244.22 409.62 246.44 C 405.52 257.46 401.53 268.51 397.41 279.52 C 396.81 281.03 396.36 282.60 396.16 284.23 C 409.49 284.98 423.21 278.82 430.56 267.49 C 437.37 257.51 438.56 244.10 433.81 233.01 C 427.17 235.83 420.97 239.60 414.45 242.68 M 218.61 280.77 C 215.64 289.39 220.40 299.62 228.73 303.18 C 233.26 305.02 237.91 306.57 242.49 308.32 C 245.90 309.56 249.31 311.07 252.99 311.24 C 260.32 311.63 267.75 307.25 270.64 300.43 C 273.18 294.26 275.25 287.91 277.66 281.69 C 260.45 274.87 242.84 269.06 225.61 262.30 C 222.88 268.29 220.84 274.58 218.61 280.77 M 233.43 324.96 C 233.36 337.85 233.44 350.74 233.39 363.63 C 239.48 363.65 245.58 363.59 251.67 363.67 C 251.77 352.38 251.69 341.10 251.72 329.81 C 245.31 329.53 239.42 326.92 233.43 324.96 M 18.67 326.62 C 18.63 369.96 18.66 413.31 18.66 456.65 C 24.96 456.73 31.26 456.72 37.55 456.65 C 37.56 413.31 37.60 369.96 37.53 326.62 C 31.25 326.58 24.96 326.58 18.67 326.62 M 56.43 356.18 C 56.18 379.79 56.31 403.41 56.37 427.03 C 67.99 423.46 75.56 410.94 74.64 399.00 C 74.07 389.38 76.36 379.09 71.84 370.13 C 68.81 363.66 63.12 358.63 56.43 356.18 M 93.79 382.32 C 93.44 388.54 93.67 394.78 93.66 401.01 C 113.10 401.16 132.55 401.03 152.00 401.07 C 185.25 400.95 218.50 401.32 251.75 400.89 C 251.66 394.71 251.75 388.53 251.69 382.35 C 199.05 382.36 146.42 382.41 93.79 382.32 M 233.35 419.83 C 233.95 425.11 231.71 431.70 236.31 435.70 C 239.76 439.40 246.01 438.92 249.36 435.35 C 253.30 431.12 251.21 424.86 251.66 419.67 C 245.56 419.74 239.45 419.46 233.35 419.83 Z" />
<path fill="#ffffff" opacity="1.00" d=" M 172.31 163.28 C 174.58 157.62 176.42 151.81 178.75 146.18 C 184.26 148.03 189.70 150.08 195.16 152.04 C 196.57 152.58 195.33 154.35 195.18 155.33 C 193.31 160.16 191.69 165.09 189.67 169.86 C 183.89 167.65 177.98 165.78 172.31 163.28 Z" />
<path fill="#ffffff" opacity="1.00" d=" M 213.61 159.14 C 219.54 160.65 225.18 163.14 230.90 165.27 C 229.42 171.25 226.88 176.93 224.76 182.71 C 218.94 180.59 213.09 178.53 207.34 176.24 C 209.42 170.54 211.55 164.85 213.61 159.14 Z" />
<path fill="#ffffff" opacity="1.00" d=" M 248.50 172.14 C 254.53 173.30 260.17 175.98 265.88 178.17 C 264.01 184.06 262.08 190.01 259.33 195.56 C 253.71 193.27 247.99 191.28 242.29 189.22 C 244.32 183.51 246.48 177.85 248.50 172.14 Z" />
</g>
</svg>
