<?xml version="1.0" encoding="UTF-8" ?>
<!DOCTYPE svg PUBLIC "-//W3C//DTD SVG 1.1//EN" "http://www.w3.org/Graphics/SVG/1.1/DTD/svg11.dtd">
<svg width="512pt" height="512pt" viewBox="0 0 512 512" version="1.1" xmlns="http://www.w3.org/2000/svg">
<g id="#ffffffff">
<path fill="#ffffff" opacity="1.00" d=" M 249.57 0.00 L 263.41 0.00 C 272.71 0.48 282.02 1.12 291.23 2.49 C 288.42 8.11 285.14 13.47 281.99 18.90 C 261.02 55.29 240.09 91.70 219.06 128.05 C 198.80 163.22 178.20 198.20 158.24 233.55 C 157.86 233.54 157.09 233.54 156.70 233.54 C 131.00 188.29 104.66 143.41 78.70 98.30 C 75.43 92.65 72.04 87.06 69.02 81.25 C 84.71 64.60 102.49 49.86 122.06 38.00 C 160.23 14.37 204.73 1.31 249.57 0.00 Z" />
<path fill="#ffffff" opacity="1.00" d=" M 233.96 144.95 C 260.59 98.84 286.95 52.56 313.90 6.63 C 379.04 21.70 437.63 63.29 472.87 120.18 C 480.56 132.76 487.67 145.78 492.90 159.59 C 407.27 159.93 321.63 159.62 236.00 159.75 C 232.62 159.75 229.24 159.74 225.87 159.58 C 228.14 154.48 231.16 149.77 233.96 144.95 Z" />
<path fill="#ffffff" opacity="1.00" d=" M 50.09 104.05 C 51.45 102.27 52.89 100.55 54.35 98.85 C 98.96 176.08 143.79 253.19 188.05 330.63 C 129.10 330.73 70.14 330.65 11.19 330.67 C 4.48 309.20 1.05 286.82 0.00 264.39 L 0.00 246.63 C 1.09 228.23 3.46 209.85 8.19 192.01 C 16.40 160.38 30.68 130.34 50.09 104.05 Z" />
<path fill="#ffffff" opacity="1.00" d=" M 323.95 181.37 C 382.90 181.27 441.86 181.35 500.81 181.33 C 507.59 203.11 511.05 225.83 512.00 248.59 L 512.00 265.36 C 510.22 302.41 500.92 339.14 483.99 372.19 C 476.43 386.55 468.07 400.64 457.65 413.13 C 413.03 335.91 368.23 258.79 323.95 181.37 Z" />
<path fill="#ffffff" opacity="1.00" d=" M 347.17 290.17 C 349.46 285.89 351.87 281.67 354.66 277.69 C 363.01 291.63 370.81 305.89 379.06 319.89 C 400.30 356.88 422.00 393.62 442.98 430.76 C 421.79 453.35 396.53 472.12 368.71 485.74 C 335.42 502.17 298.53 511.07 261.44 512.00 L 248.59 512.00 C 239.29 511.50 229.99 510.86 220.77 509.52 C 228.73 494.76 237.44 480.42 245.74 465.85 C 279.38 407.19 313.38 348.74 347.17 290.17 Z" />
<path fill="#ffffff" opacity="1.00" d=" M 19.11 352.41 C 98.74 352.08 178.37 352.36 258.00 352.27 C 267.37 352.35 276.75 352.08 286.12 352.42 C 278.76 366.71 270.15 380.32 262.33 394.36 C 240.96 431.38 219.75 468.51 198.09 505.36 C 150.42 494.17 106.14 469.11 72.07 433.94 C 49.53 410.42 31.09 382.74 19.11 352.41 Z" />
</g>
</svg>
